# xmcd
# 
# Track frame offsets:
#     150
#     14746
#     26473
#     39691
#     51880
#     69146
#     82472
#     102860
#     115703
#     129146
#     143822
#     158486
#     170597
#     182949
#     196058
#     211319
#     236877
#     249279
# 
# Disc length: 3522
# 
# Revision: 2
# Processed by: cddbd v1.5.2PL0 Copyright (c) Steve Scherf et al.
# Submitted via: fre:ac v1.0.17
# 
DISCID=f30dc012
DTITLE=Various Artist - Stormy Weather - Ladies Sing The Blues - Volume 1
DYEAR=2000
DGENRE=Blues
TTITLE0=Nina Simone - Exactly Like You
TTITLE1=Sarah Vaughan - Nice Work If You Can Get It
TTITLE2=Lena Horne - Mad About The Boy
TTITLE3=Ella Fitzgerald - It's Only a Paper Moon
TTITLE4=Nina Simone - Forbidden Fruit
TTITLE5=Sarah Vaughan - Love Me or Leave Me
TTITLE6=Ella Fitzgerald - I Want to be Happy
TTITLE7=Billie Holiday - More Than You Know
TTITLE8=Ella Fitzgerald - It's Wonderful
TTITLE9=Dinah Washington - Resolution Blues
TTITLE10=Sarah Vaughan - Summertime
TTITLE11=Dinah Washington - Oo We Walkie Talkie
TTITLE12=Billie Holiday - God Bless This Child
TTITLE13=Ella Fitzgerald - You Won't Be Satisfied
TTITLE14=Lena Horne - Stormy Weather
TTITLE15=Nina Simone - Trouble In Mind
TTITLE16=Lena Horne - Motherless Child
TTITLE17=Lena Horne - One More For My Baby
EXTD=YEAR: 2000 Mastertech 590442/1
EXTT0=
EXTT1=
EXTT2=
EXTT3=
EXTT4=
EXTT5=
EXTT6=
EXTT7=
EXTT8=
EXTT9=
EXTT10=
EXTT11=
EXTT12=
EXTT13=
EXTT14=
EXTT15=
EXTT16=
EXTT17=
PLAYORDER=
